# xmcd CD database file
#
# Track frame offsets:
#	150
#	13468
#	46932
#	78038
#	120238
#	134215
#	147167
#	171903
#	183943
#	196217
#	208393
#	222523
#	245174
#	259101
#	284989
#
# Disc length: 4701 seconds
#
# Revision: 0
# Processed by: cddbd v1.5.2PL0 Copyright (c) Steve Scherf et al.
# Submitted via: CDex 1.70beta2
#
DISCID=f3125b0f
DTITLE=Lotta Sax Appeal - Groovin' High (BeBop and Beyond)
DYEAR=2003
DGENRE=Jazz
TTITLE0=KoKo (Charlie Parker)
TTITLE1=Sweet Georgia Brown (Charlie Ventura, Allen Eager)
TTITLE2=Groovin' High (Sonny Criss, Wardell Gray)
TTITLE3=Blue Lou (Wardell Gray)
TTITLE4=Chromatic Abberation (Dexter Gordon)
TTITLE5=Idaho (Gene Ammons)
TTITLE6=The Duel (Dexter Gordon, Teddy Edwards)
TTITLE7=Swingin' On Savoy (Harold Land)
TTITLE8=Dexterious (James Moody)
TTITLE9=Fine and Dandy (Sonny Stitt)
TTITLE10=Who's Mad (Leo Parker)
TTITLE11=Birks Works (John Coltrane)
TTITLE12=With A Song In My Heart (Sonny Rollins)
TTITLE13=Out of the Blue (Jackie McLean)
TTITLE14=All The Things You Are (Ronnie Scott)
EXTD=YEAR: 2003
EXTT0=
EXTT1=
EXTT2=
EXTT3=
EXTT4=
EXTT5=
EXTT6=
EXTT7=
EXTT8=
EXTT9=
EXTT10=
EXTT11=
EXTT12=
EXTT13=
EXTT14=
PLAYORDER=
